<?xml version="1.0" encoding="UTF-8" standalone="no"?>
<svg
   xml:space="preserve"
   viewBox="0 0 100 100"
   y="0"
   x="0"
   id="圖層_1"
   version="1.1"
   width="200px"
   height="200px"
   style="width:100%;height:100%;background-size:initial;background-repeat-y:initial;background-repeat-x:initial;background-position-y:initial;background-position-x:initial;background-origin:initial;background-image:initial;background-color:rgb(255, 255, 255);background-clip:initial;background-attachment:initial;animation-play-state:paused"
   sodipodi:docname="YouTube NoteTaker V2.svg"
   inkscape:version="1.3.2 (091e20e, 2023-11-25, custom)"
   xmlns:inkscape="http://www.inkscape.org/namespaces/inkscape"
   xmlns:sodipodi="http://sodipodi.sourceforge.net/DTD/sodipodi-0.dtd"
   xmlns="http://www.w3.org/2000/svg"
   xmlns:svg="http://www.w3.org/2000/svg"
   xmlns:d="https://loading.io/stock/"><defs
     id="defs8"><inkscape:path-effect
       effect="fillet_chamfer"
       id="path-effect1"
       is_visible="true"
       lpeversion="1"
       nodesatellites_param="F,0,0,1,0,26.458333,0,1 @ F,0,0,1,0,26.458333,0,1 @ F,0,0,1,0,26.458333,0,1 @ F,0,0,1,0,26.458333,0,1"
       radius="100"
       unit="px"
       method="auto"
       mode="F"
       chamfer_steps="1"
       flexible="false"
       use_knot_distance="true"
       apply_no_radius="true"
       apply_with_radius="true"
       only_selected="false"
       hide_knots="false" /><inkscape:path-effect
       effect="fillet_chamfer"
       id="path-effect2"
       is_visible="true"
       lpeversion="1"
       nodesatellites_param="F,0,0,1,0,6.6145833,0,1 @ F,0,0,1,0,6.6145833,0,1 @ F,0,0,1,0,6.6145833,0,1"
       radius="25"
       unit="px"
       method="auto"
       mode="F"
       chamfer_steps="1"
       flexible="false"
       use_knot_distance="true"
       apply_no_radius="true"
       apply_with_radius="true"
       only_selected="false"
       hide_knots="false" /></defs><sodipodi:namedview
     id="namedview8"
     pagecolor="#ffffff"
     bordercolor="#000000"
     borderopacity="0.25"
     inkscape:showpageshadow="2"
     inkscape:pageopacity="0.0"
     inkscape:pagecheckerboard="0"
     inkscape:deskcolor="#d1d1d1"
     inkscape:zoom="2.985"
     inkscape:cx="100.1675"
     inkscape:cy="100"
     inkscape:window-width="1920"
     inkscape:window-height="1009"
     inkscape:window-x="1912"
     inkscape:window-y="-8"
     inkscape:window-maximized="1"
     inkscape:current-layer="layer1" /><!-- generated by https://loading.io/ --><g
     id="g9"
     inkscape:label="Vector"
     transform="translate(16.709042,0.28727054)"><g
       class="ldl-scale"
       id="g8"
       transform="matrix(1.2274748,0,0,1.2274748,-28.083396,-9.4110492)"><path
   stroke-miterlimit="10"
   stroke-width="3"
   stroke="#333"
   fill="#f5e6c8"
   d="M 70.563,87.167 H 29.437 A 5.058,5.058 0 0 1 24.379,82.109 V 17.891 a 5.058,5.058 0 0 1 5.058,-5.058 h 41.127 a 5.058,5.058 0 0 1 5.058,5.058 v 64.217 a 5.06,5.06 0 0 1 -5.059,5.059 z"
   style="display:inline;fill:#79e3e3;fill-opacity:1;stroke:#333333"
   id="path1" />
<g
   style="display:inline"
   id="g5"><path
   fill="#333"
   d="m 36,20.667 a 2.518,2.518 0 0 1 -2.518,-2.518 v -7.964 a 2.518,2.518 0 1 1 5.036,0 v 7.964 A 2.518,2.518 0 0 1 36,20.667 Z"
   style="fill:#333333"
   id="path2" />
<path
   fill="#333"
   d="m 45.333,20.667 a 2.518,2.518 0 0 1 -2.518,-2.518 v -7.964 a 2.518,2.518 0 1 1 5.036,0 v 7.964 a 2.518,2.518 0 0 1 -2.518,2.518 z"
   style="fill:#333333"
   id="path3" />
<path
   fill="#333"
   d="m 54.667,20.667 a 2.518,2.518 0 0 1 -2.518,-2.518 v -7.964 a 2.518,2.518 0 1 1 5.036,0 v 7.964 a 2.519,2.519 0 0 1 -2.518,2.518 z"
   style="fill:#333333"
   id="path4" />
<path
   fill="#333"
   d="m 64,20.667 a 2.518,2.518 0 0 1 -2.518,-2.518 v -7.964 a 2.518,2.518 0 1 1 5.036,0 v 7.964 A 2.518,2.518 0 0 1 64,20.667 Z"
   style="fill:#333333"
   id="path5" /></g>
<path
   d="M 36,38 H 64"
   stroke-miterlimit="10"
   stroke-width="3"
   stroke="#333"
   fill="none"
   style="display:inline;stroke:#333333"
   id="path6" />
<path
   d="M 36,45 H 64"
   stroke-miterlimit="10"
   stroke-width="3"
   stroke="#333"
   fill="none"
   style="display:inline;stroke:#333333"
   id="path7" />
<path
   d="M 36,52 H 54"
   stroke-miterlimit="10"
   stroke-width="3"
   stroke="#333"
   fill="none"
   style="display:inline;stroke:#333333"
   id="path8" />
<metadata
   id="metadata8"><d:name
   style="animation-play-state:paused">notebook</d:name>
<d:tags
   style="animation-play-state:paused">textbook,memo,read,paper,binder,notebook,books</d:tags>
<d:license
   style="animation-play-state:paused">by</d:license>
<d:slug
   style="animation-play-state:paused">4uc34t</d:slug></metadata></g><g
       inkscape:label="YouTube"
       inkscape:groupmode="layer"
       id="layer1"
       transform="matrix(0.56859477,0,0,-0.56859477,-46.429999,111.66043)"
       style="display:inline"><path
         style="display:inline;fill:#ff0000;stroke:#000000;stroke-width:10.0083;stroke-dasharray:none;stroke-opacity:1;paint-order:stroke fill markers"
         id="rect1"
         width="168.22694"
         height="118.17897"
         x="18.630997"
         y="48.769375"
         inkscape:path-effect="#path-effect1"
         sodipodi:type="rect"
         d="m 45.08933,48.769375 h 115.31028 a 26.458333,26.458333 45 0 1 26.45833,26.458333 l 0,65.262302 a 26.458333,26.458333 135 0 1 -26.45833,26.45834 H 45.08933 A 26.458333,26.458333 45 0 1 18.630997,140.49001 V 75.227708 A 26.458333,26.458333 135 0 1 45.08933,48.769375 Z"
         transform="matrix(0.51697957,-0.0021095,0.00210951,-0.50967199,86.86266,182.08566)" /><path
         style="fill:#ffffff;stroke:#000000;stroke-width:10.0083;stroke-dasharray:none;stroke-opacity:1;paint-order:stroke fill markers"
         d="m 79.706166,88.99277 -0.13558,38.09749 a 4.1553441,4.1553441 32.341329 0 0 5.94563,3.76468 l 40.666824,-19.4156 a 3.232316,3.232316 90.521904 0 0 0.0529,-5.80799 L 85.645968,85.33636 a 4.1043207,4.1043207 148.38447 0 0 -5.939802,3.65641 z"
         id="path2-9"
         inkscape:path-effect="#path-effect2"
         inkscape:original-d="M 79.729705,82.378229 79.547047,133.7048 132.15221,108.58948 Z"
         transform="matrix(0.51697957,-0.0021095,-0.00210951,0.50967199,86.851824,72.140382)" /></g></g></svg>
